HIERARCHY
ROOT Pelvis
{
	OFFSET 0.000000 0.000000 0.000000
	CHANNELS 6 Xposition Yposition Zposition Zrotation Yrotation Xrotation 
	JOINT Left_hip
	{
		OFFSET 0.076090 -0.089427 -0.010735
		CHANNELS 3 Zrotation Yrotation Xrotation
		JOINT Left_knee
		{
			OFFSET 0.030200 -0.359518 -0.003501
			CHANNELS 3 Zrotation Yrotation Xrotation
			JOINT Left_ankle
			{
				OFFSET -0.011005 -0.371022 -0.045888
				CHANNELS 3 Zrotation Yrotation Xrotation
				JOINT Left_foot
				{
					OFFSET 0.023930 -0.052103 0.111084
					CHANNELS 3 Zrotation Yrotation Xrotation
					End Site
					{
						OFFSET 0.000000 0.000000 0.000000
					}
				}
			}
		}
	}
	JOINT Right_hip
	{
		OFFSET -0.073836 -0.088112 -0.007709
		CHANNELS 3 Zrotation Yrotation Xrotation
		JOINT Right_knee
		{
			OFFSET -0.035715 -0.367809 -0.006536
			CHANNELS 3 Zrotation Yrotation Xrotation
			JOINT Right_ankle
			{
				OFFSET 0.013718 -0.371958 -0.043815
				CHANNELS 3 Zrotation Yrotation Xrotation
				JOINT Right_foot
				{
					OFFSET -0.021936 -0.046387 0.114542
					CHANNELS 3 Zrotation Yrotation Xrotation
					End Site
					{
						OFFSET 0.000000 0.000000 0.000000
					}
				}
			}
		}
	}
	JOINT Spine1
	{
		OFFSET -0.001865 0.102064 -0.019455
		CHANNELS 3 Zrotation Yrotation Xrotation
		JOINT Spine2
		{
			OFFSET 0.003082 0.129260 -0.001938
			CHANNELS 3 Zrotation Yrotation Xrotation
			JOINT Spine3
			{
				OFFSET 0.001104 0.048093 0.026561
				CHANNELS 3 Zrotation Yrotation Xrotation
				JOINT Neck
				{
					OFFSET -0.002010 0.204222 -0.047183
					CHANNELS 3 Zrotation Yrotation Xrotation
					JOINT Head
					{
						OFFSET 0.005050 0.063649 0.048489
						CHANNELS 3 Zrotation Yrotation Xrotation
						End Site
						{
							OFFSET 0.000000 0.000000 0.000000
						}
					}
				}
				JOINT Left_collar
				{
					OFFSET 0.072979 0.114065 -0.031633
					CHANNELS 3 Zrotation Yrotation Xrotation
					JOINT Left_shoulder
					{
						OFFSET 0.083419 0.032092 -0.006530
						CHANNELS 3 Zrotation Yrotation Xrotation
						JOINT Left_elbow
						{
							OFFSET 0.239393 -0.012014 -0.025060
							CHANNELS 3 Zrotation Yrotation Xrotation
							JOINT Left_wrist
							{
								OFFSET 0.227297 0.008116 0.000384
								CHANNELS 3 Zrotation Yrotation Xrotation
								JOINT Left_palm
								{
									OFFSET 0.074607 -0.009248 -0.012277
									CHANNELS 3 Zrotation Yrotation Xrotation
									End Site
									{
										OFFSET 0.000000 0.000000 0.000000
									}
								}
							}
						}
					}
				}
				JOINT Right_collar
				{
					OFFSET -0.074980 0.111880 -0.037894
					CHANNELS 3 Zrotation Yrotation Xrotation
					JOINT Right_shoulder
					{
						OFFSET -0.087565 0.034353 -0.009323
						CHANNELS 3 Zrotation Yrotation Xrotation
						JOINT Right_elbow
						{
							OFFSET -0.236838 -0.013719 -0.019794
							CHANNELS 3 Zrotation Yrotation Xrotation
							JOINT Right_wrist
							{
								OFFSET -0.235053 0.006433 -0.003853
								CHANNELS 3 Zrotation Yrotation Xrotation
								JOINT Right_palm
								{
									OFFSET -0.075499 -0.006894 -0.009792
									CHANNELS 3 Zrotation Yrotation Xrotation
									End Site
									{
										OFFSET 0.000000 0.000000 0.000000
									}
								}
							}
						}
					}
				}
			}
		}
	}
}
MOTION
Frames: 10
Frame Time: 0.100000
-0.010655 0.075847 -0.371728 -173.204141 -40.507167 -5.664523 2.997143 7.010755 -20.396032 -1.817938 8.664247 15.505160 -1.161305 9.994036 -3.762809 4.744608 11.945122 -6.803112 1.430634 1.421833 -20.015282 1.965227 1.889102 11.458843 8.564644 -4.885006 -3.042831 -9.669474 2.495899 -0.859065 6.095174 -1.833632 31.246700 0.873985 -2.373305 3.208752 3.977165 -0.169388 2.755773 -4.169653 -1.754305 -6.916535 2.389653 -2.389968 -0.199319 -11.996380 -27.439623 1.016478 -56.759911 -32.719009 10.618997 9.832723 -12.899816 -0.394847 7.096149 -5.302232 0.543557 -2.996344 -0.727308 -7.003236 5.673512 28.472284 1.187274 48.497625 26.939580 7.694022 -10.029520 17.505060 -11.078679 -7.970489 1.681790 -9.330012 7.456739 4.670197 -6.914498 
-0.024133 0.080940 -0.383339 -172.762272 -43.867369 -3.307948 2.999842 7.644947 -24.764847 -1.094070 10.656268 17.236976 0.220867 10.417902 -3.548516 2.642761 13.086179 -5.676822 2.054263 1.341776 -23.568943 1.288640 -0.626849 10.657492 5.378376 -5.448763 -3.457995 -4.649903 0.294584 1.149380 6.383054 -2.691963 37.488385 0.331818 -2.341830 3.997919 4.256891 -0.007118 2.269343 -4.801895 -2.321135 -6.090091 2.832099 -1.344150 -2.571359 -12.422831 -29.855829 1.670945 -54.490737 -34.711326 9.691420 10.715844 -14.825956 0.186033 7.099416 -6.441681 0.788441 -0.442655 0.011785 -5.868167 4.560722 31.664728 1.362802 45.252333 30.026068 5.246590 -9.238540 15.813997 -12.095482 -9.831374 2.585740 -9.403357 6.050607 4.031318 -5.893674 
-0.033716 0.085058 -0.390984 -171.258916 -47.517685 -1.083939 3.203703 8.463889 -29.210136 -1.393826 13.319830 18.959143 0.750713 10.825187 -3.837614 1.608991 14.040538 -4.597860 1.357097 1.513458 -28.873484 1.829558 -1.275490 11.895101 5.647214 -4.016692 -1.711993 -3.424994 -0.761073 1.600839 6.001023 -2.776182 43.009739 -0.700573 -1.977757 5.100079 4.194725 0.442115 1.621401 -6.288375 -3.241999 -6.753587 4.107791 -1.240281 -7.502118 -11.724557 -33.486241 1.226254 -50.353226 -36.794936 7.709101 12.346612 -16.745263 -3.488012 7.077603 -6.794244 0.472901 0.629579 0.285999 -5.335397 2.365149 35.055749 0.806430 41.123504 31.293140 2.162428 -9.702712 16.981688 -14.990510 -9.893515 2.790986 -10.883096 5.698809 4.007986 -6.102601 
-0.040366 0.086972 -0.391801 -170.389826 -49.999014 1.134558 2.803423 8.370391 -32.927292 -0.730663 14.681661 20.196010 1.442665 11.786579 -4.148016 0.577706 15.044150 -3.351100 0.892389 2.762443 -33.176449 1.855698 -0.506059 12.999986 5.973153 -3.150422 -0.548227 -2.837442 -0.873406 2.099629 6.043486 -3.573983 48.441136 -1.464335 -2.167708 6.451278 4.196484 0.809852 0.951470 -8.063607 -3.441876 -8.002800 4.799617 -0.229523 -13.476721 -8.988156 -37.789596 -0.617642 -43.647430 -39.311048 3.483854 14.081669 -17.056149 -8.613654 6.930976 -6.439958 -0.439587 2.154882 0.501748 -4.166898 -1.640361 38.903290 -1.337271 35.389119 33.181487 -2.071931 -10.050729 16.664276 -18.249549 -10.418187 2.627898 -10.509683 5.388198 4.010438 -6.232078 
-0.042894 0.084292 -0.386179 -168.855292 -53.384974 2.954929 2.130559 8.538144 -35.326879 -0.397168 16.082288 19.767839 2.092596 12.950226 -4.121101 -0.431925 15.835287 -1.895289 0.762507 3.583273 -35.831536 1.677894 1.024455 11.340631 6.817864 -2.707063 1.277360 -3.073134 -0.266120 2.684718 5.772436 -3.401069 52.458264 -2.677241 -2.042749 7.484828 3.952142 1.329501 0.623206 -9.715381 -3.401414 -7.971814 5.562827 0.739655 -17.619049 -5.168827 -41.830834 -3.424079 -34.959487 -41.260521 -2.033679 14.742296 -15.769722 -13.012650 7.750538 -6.255987 0.696310 2.880448 0.644314 -4.098257 -6.583608 42.341755 -4.277139 29.074825 34.400543 -6.720383 -9.750707 15.774009 -21.684988 -11.343964 2.368470 -10.812899 5.674451 4.037278 -6.887254 
-0.041723 0.081521 -0.377559 -168.086550 -55.750965 4.276842 1.982241 8.725379 -36.327587 -0.470184 16.709706 19.553170 2.458869 13.995674 -4.463926 -0.876982 16.482155 -1.073451 0.760412 4.190777 -37.108875 1.759292 2.555640 10.466138 7.345577 -3.176980 1.941580 -3.500955 1.133512 3.171360 5.496902 -3.604376 54.971677 -3.362782 -2.021586 8.258235 3.710732 1.412551 0.672552 -10.588752 -2.668019 -5.600154 5.407174 1.871177 -17.193450 -3.222372 -43.604032 -5.071625 -27.494051 -40.489055 -6.591428 16.419370 -17.847248 -16.798804 9.264843 -6.307307 3.066452 2.743596 0.337357 -4.788298 -9.306696 44.919944 -6.485884 24.032978 34.968509 -9.092956 -9.459795 17.730197 -22.276198 -12.456059 2.969913 -6.779371 6.043405 4.406746 -7.722096 
-0.037110 0.078643 -0.368278 -168.233388 -57.464963 5.316817 2.200925 8.958204 -36.284274 -0.495740 17.472889 19.433118 3.314879 14.398100 -4.682176 -1.685814 17.264566 -0.732027 0.829865 4.733426 -37.153629 1.896332 3.088183 9.739674 6.887805 -2.743653 2.250297 -2.345208 1.378769 3.325998 5.046994 -3.201983 55.989757 -3.017200 -1.952277 9.033642 3.677546 1.366013 1.234585 -10.746520 -0.894957 -1.758077 4.740338 2.046440 -12.993561 -3.464861 -42.740794 -4.647588 -24.321889 -39.363930 -8.662883 19.143383 -22.261167 -18.956916 11.190839 -6.645316 4.661386 2.227297 0.099520 -4.722945 -7.594034 44.409108 -5.512285 26.382014 35.029080 -4.676120 -11.651430 28.891215 -17.193792 -13.023850 4.671390 -3.863240 6.562182 4.950997 -7.575504 
-0.031781 0.076048 -0.360154 -169.123642 -58.770126 6.974351 2.783200 9.238879 -36.271034 -0.461459 18.066383 19.261877 3.515370 14.783004 -5.015372 -1.431565 18.132997 -0.223457 1.200960 5.203053 -36.255102 2.057104 3.201953 7.345415 6.399364 -1.625053 3.225100 -0.678429 0.125424 3.012755 4.528721 -2.363630 56.412104 -2.847384 -1.711356 9.621625 4.032073 1.480396 1.290626 -10.398408 -0.608103 0.235478 5.439538 1.868589 -12.541423 -3.484534 -41.972580 -4.024771 -23.481035 -38.398742 -9.230947 20.000931 -22.641434 -21.401606 11.095770 -6.586488 5.699332 2.631071 0.688233 -5.200950 -6.636497 44.636598 -4.490286 33.634354 35.082622 2.652029 -8.353607 35.792454 -10.954705 -10.083940 4.660332 -7.416058 5.555515 4.599049 -7.094593 
-0.027837 0.074360 -0.353061 -170.121585 -59.789810 8.394860 3.372957 9.310443 -36.505349 -0.105450 18.502481 19.841284 3.555916 15.242157 -5.491503 -1.088633 18.308005 0.441771 1.603431 5.347335 -35.415319 2.330836 3.125146 5.441559 6.217690 -0.464425 4.104942 0.531444 -0.984476 2.644582 4.275984 -1.312057 56.597262 -2.608221 -1.325814 10.087094 4.344462 2.048598 1.139045 -10.121765 0.322835 0.697162 5.929392 1.153120 -13.178833 -2.853133 -42.052387 -3.870360 -23.820910 -38.326243 -9.051901 18.609286 -19.892362 -21.109335 10.022362 -6.332158 5.494479 3.239535 0.934378 -5.319564 -5.108301 46.000259 -2.993943 39.591260 36.528029 6.701524 -5.740889 32.033262 -8.468488 -9.273586 3.360807 -9.204099 5.455626 4.578917 -7.558833 
-0.026739 0.074575 -0.348520 -172.087157 -60.206846 7.997671 4.480779 9.692304 -34.685085 2.593487 21.984796 23.149970 -0.147234 13.633977 -11.647895 3.067044 18.811867 2.287504 3.143044 5.540914 -30.489387 1.767625 3.209767 1.217853 7.921250 -2.072771 4.059427 -1.986342 4.203932 2.412299 5.374242 -0.896360 58.746872 -2.925315 -1.338984 12.562400 4.676401 2.611041 0.520370 -9.250438 5.234709 -2.480503 5.378295 -3.414460 -12.051970 1.408467 -43.317411 -9.257688 -28.602728 -35.007562 -6.559920 18.913519 -20.132928 -21.294003 8.518937 -5.067656 6.372812 2.501174 -1.651489 -6.814865 -5.495414 48.108663 -4.934561 43.799920 35.335640 7.117330 -8.874903 29.141378 -11.875303 -9.609695 -1.594801 -9.436982 8.867816 7.575075 -11.143416 
